<svg aria-hidden="true" style="position:absolute;width:0;height:0" xmlns="http://www.w3.org/2000/svg" overflow="hidden">
2
<defs>
<symbol id="send" viewBox="0 0 32 32">
84
<path fill="var(--color5, #fff)" d="M32 0L0 18l10.227 3.788L26 7 14.002 23.186l.01.004-.012-.004V32l5.735-6.691L27 28l5-28z"/>
85
</symbol>
86

87
<symbol id="close" viewBox="0 0 18 18">
88
<path fill="var(--color6, #000)" d="M15 4.10786L13.8921 3L9.5 7.39214L5.10786 3L4 4.10786L8.39214 8.5L4 12.8921L5.10786 14L9.5 9.60786L13.8921 14L15 12.8921L10.6079 8.5L15 4.10786Z"/>
89
</symbol>
90

91
<symbol id="user-name" viewBox="0 0 18 18">
92
<path fill="var(--color7, #212121)" d="M9 9C10.6575 9 12 7.6575 12 6C12 4.3425 10.6575 3 9 3C7.3425 3 6 4.3425 6 6C6 7.6575 7.3425 9 9 9ZM9 10.5C6.9975 10.5 3 11.505 3 13.5V14.25C3 14.6625 3.3375 15 3.75 15H14.25C14.6625 15 15 14.6625 15 14.25V13.5C15 11.505 11.0025 10.5 9 10.5Z" />
93
</symbol>
94

95
<symbol id="user-tel" viewBox="0 0 18 18">
96
<path fill="var(--color7, #212121)" d="M13.9958 11.1226L12.1576 10.9128C11.7162 10.8621 11.282 11.0141 10.9708 11.3253L9.63924 12.6568C7.59123 11.6147 5.91229 9.94302 4.8702 7.88776L6.209 6.54895C6.52018 6.23776 6.67216 5.80355 6.6215 5.36211L6.41163 3.53843C6.32479 2.80751 5.70966 2.25751 4.97151 2.25751H3.71955C2.90179 2.25751 2.22153 2.93777 2.27219 3.75553C2.65574 9.93578 7.59847 14.8713 13.7714 15.2548C14.5892 15.3055 15.2695 14.6252 15.2695 13.8075V12.5555C15.2767 11.8246 14.7267 11.2095 13.9958 11.1226Z" />
97
</symbol>
98

99

100
<symbol id="user-mail" viewBox="0 0 18 18">
101
<path fill="var(--color7, #212121)" d="M15 3H3C2.175 3 1.5075 3.675 1.5075 4.5L1.5 13.5C1.5 14.325 2.175 15 3 15H15C15.825 15 16.5 14.325 16.5 13.5V4.5C16.5 3.675 15.825 3 15 3ZM14.7 6.1875L9.3975 9.5025C9.1575 9.6525 8.8425 9.6525 8.6025 9.5025L3.3 6.1875C3.1125 6.0675 3 5.865 3 5.6475C3 5.145 3.5475 4.845 3.975 5.1075L9 8.25L14.025 5.1075C14.4525 4.845 15 5.145 15 5.6475C15 5.865 14.8875 6.0675 14.7 6.1875Z" />
102
</symbol>


<symbol id="checked" viewBox="0 0 16 15">

<path fill="var(--color5, #fff)" d="M3.95703 7.75166L3.88825 7.68604L3.81923 7.75141L2.93123 8.59258L2.85486 8.66492L2.93097 8.73753L6.42671 12.0724L6.49574 12.1382L6.56476 12.0724L14.069 4.91352L14.1449 4.84116L14.069 4.76881L13.1873 3.92764L13.1183 3.86183L13.0493 3.92761L6.49577 10.1735L3.95703 7.75166Z" stroke="white" stroke-width="0.2"/>
107
</symbol>
108

109
<symbol id="cross" viewBox="0 0 40 40">
110
<path fill="var(--color7, #212121)" d="M8 14.6667V12H32V14.6667H8ZM8 21.3333H32V18.6667H8V21.3333ZM8 28H32V25.3333H8V28Z"/>
111
</symbol>
112

113
<symbol id="menu" viewBox="0 0 40 40">
114
<path fill="var(--color7, #212121)" d="M29.6667 12.88L27.7867 11L20.3333 18.4533L12.88 11L11 12.88L18.4533 20.3333L11 27.7867L12.88 29.6667L20.3333 22.2133L27.7867 29.6667L29.6667 27.7867L22.2133 20.3333L29.6667 12.88Z"/>
115
</symbol>
116

117
</defs>
118
</svg>